<svg class="w-full h-full fill-black dark:fill-white" fill="black" xmlns="http://www.w3.org/2000/svg" viewBox="0 0 373 65"><g clip-path="url(#clip0_3128_)"><path d="M122.22 17.39H121.83H120.6L111.86 37.23L103.18 17.39H101.94H101.57H100.37L95.5601 44.63H99.1501L102.66 24.88L110.89 43.51H112.87L121.12 24.86L124.6 44.63H128.19L123.42 17.39H122.22Z" fill="#EC1C24"></path><path d="M147.04 37.43C145.68 40.06 143.34 41.51 140.48 41.51C136.8 41.51 133.94 39 133.3 35.39H151.01L151.08 34.27C151.09 34.1 151.1 33.89 151.1 33.72C151.1 27.44 146.53 22.7 140.48 22.7C134.43 22.7 129.67 27.48 129.67 33.83C129.67 40.18 134.32 45.01 140.48 45.01C144.86 45.01 148.37 42.69 150.38 38.49L151.19 36.79H147.38L147.05 37.43H147.04ZM133.36 31.94C134.11 28.49 136.88 26.17 140.47 26.17C144.06 26.17 146.72 28.48 147.43 31.94H133.36Z" fill="#EC1C24"></path><path d="M171.04 25.54C169.09 23.72 166.46 22.7 163.55 22.7C157.3 22.7 152.58 27.49 152.58 33.85C152.58 40.21 157.29 45 163.55 45C166.54 45 169.21 43.93 171.18 42.03L171.27 44.63H174.56V16.3H171.05V25.54H171.04ZM163.61 41.52C159.34 41.52 156.11 38.22 156.11 33.85C156.11 29.48 159.33 26.18 163.61 26.18C167.89 26.18 171.09 29.4 171.09 33.85C171.09 38.3 167.94 41.52 163.61 41.52Z" fill="#EC1C24"></path><path d="M183.37 16.83H179.32V21.19H183.37V16.83Z" fill="#EC1C24"></path><path d="M183.09 23.08H179.58V44.64H183.09V23.08Z" fill="#EC1C24"></path><path d="M205.17 23.08L205.09 25.72C203.12 23.79 200.43 22.7 197.41 22.7C191.15 22.7 186.44 27.49 186.44 33.85C186.44 40.21 191.16 45 197.41 45C200.42 45 203.1 43.92 205.07 42L205.14 44.63H208.48V23.07H205.17V23.08ZM197.47 41.52C193.19 41.52 189.96 38.22 189.96 33.85C189.96 29.48 193.19 26.18 197.47 26.18C201.75 26.18 204.94 29.4 204.94 33.85C204.94 38.3 201.8 41.52 197.47 41.52Z" fill="#EC1C24"></path><path d="M213.03 36.98H220.1C220.1 38.76 221.47 39.62 223.03 39.62C224.46 39.62 225.84 38.86 225.84 37.5C225.84 35.94 223.9 35.49 221.54 34.91C217.95 34.02 213.36 32.92 213.36 27.25C213.36 22.35 216.96 19.55 222.82 19.55C228.68 19.55 232.2 22.61 232.2 27.67H225.33C225.33 26.1 224.16 25.36 222.74 25.36C221.52 25.36 220.35 25.89 220.35 27.05C220.35 28.46 222.22 28.93 224.57 29.52C228.23 30.46 233.02 31.69 233.02 37.37C233.02 43.05 228.85 45.62 223.07 45.62C216.98 45.62 213.05 42.4 213.05 36.98H213.03Z"></path><path d="M255.39 35.24C255.39 35.82 255.34 36.4 255.25 36.99H241.01C241.44 39.19 242.84 40.33 244.93 40.33C246.47 40.33 247.76 39.65 248.4 38.53H254.97C253.62 42.91 249.74 45.64 244.93 45.64C238.94 45.64 234.51 41.27 234.51 35.41C234.51 29.55 238.91 25.21 244.93 25.21C250.95 25.21 255.39 29.62 255.39 35.25V35.24ZM241.12 33.33H248.87C248.29 31.41 246.91 30.38 244.91 30.38C242.91 30.38 241.65 31.43 241.11 33.33H241.12Z"></path><path d="M257.75 18.9H264.36V45.01H257.75V18.9Z"></path><path d="M288.29 25.81V44.99H283.18L282.61 43.63C281.04 44.9 279.05 45.64 276.82 45.64C270.95 45.64 266.76 41.36 266.76 35.4C266.76 29.44 270.95 25.23 276.82 25.23C279.08 25.23 281.1 25.98 282.68 27.29L283.36 25.81H288.28H288.29ZM282.01 35.41C282.01 32.92 280.19 31.05 277.72 31.05C275.25 31.05 273.43 32.92 273.43 35.41C273.43 37.9 275.25 39.79 277.72 39.79C280.19 39.79 282.01 37.92 282.01 35.41Z"></path><path d="M310.78 33.3099V45.0099H304.17V34.2299C304.17 31.9999 303.33 30.8899 301.67 30.8899C299.61 30.8899 298.42 32.3299 298.42 34.7699V45.0099H291.81V25.8299H296.45L297.36 27.8099C298.79 26.2199 300.92 25.2599 303.4 25.2599C307.85 25.2599 310.78 28.4299 310.78 33.3099Z"></path><path d="M333.93 25.83V42.88C333.93 48.91 329.98 52.64 323.65 52.64C318.21 52.64 314.4 49.9 313.51 45.35H319.89C320.35 46.63 321.98 47.32 323.59 47.32C325.8 47.32 327.58 45.91 327.58 43.63V43.06C326.14 43.97 324.43 44.5 322.57 44.5C317.07 44.5 312.98 40.41 312.98 34.86C312.98 29.31 317.07 25.21 322.57 25.21C324.89 25.21 326.99 26.04 328.62 27.43L329.46 25.82H333.93V25.83ZM323.67 39.06C326.04 39.06 327.75 37.3 327.75 34.86C327.75 32.42 326.05 30.68 323.67 30.68C321.29 30.68 319.58 32.44 319.58 34.86C319.58 37.28 321.28 39.06 323.67 39.06Z"></path><path d="M336.34 35.4199C336.34 29.4699 340.84 25.2 347.09 25.2C353.34 25.2 357.84 29.4699 357.84 35.4199C357.84 41.3699 353.32 45.6399 347.09 45.6399C340.86 45.6399 336.34 41.3499 336.34 35.4199ZM347.1 39.7C349.51 39.7 351.24 37.9499 351.24 35.4199C351.24 32.8899 349.51 31.1399 347.1 31.1399C344.69 31.1399 342.96 32.8899 342.96 35.4199C342.96 37.9499 344.69 39.7 347.1 39.7Z"></path><path d="M372.76 25.73V31.78H370.19C367.85 31.78 366.87 32.81 366.87 35.25V45H360.26V25.82H364.69L365.72 27.95C367.07 26.39 368.72 25.73 371 25.73H372.75H372.76Z"></path><path d="M52.0801 49.92L43.3201 65H6.7601C1.5701 65 -1.6799 59.38 0.9201 54.88L30.6401 3.37997C33.1901 -1.05003 39.5501 -1.14003 42.2301 3.21997L44.0901 6.24997L35.4701 21.4C35.4701 21.4 30.0201 31.96 41.5201 41.25L49.8701 46.28C49.8701 46.28 53.1901 47.98 52.0801 49.94V49.92Z" fill="#ED2F26"></path><path d="M69.2901 61.7099L67.1901 64.9999H59.0701L65.0301 54.6899C65.0301 54.6899 70.4801 45.0699 59.6601 36.2899L59.5901 36.2499C60.4701 36.4999 61.0301 36.7399 61.0301 36.7399C61.0301 36.7399 69.6501 39.7299 71.7801 48.5799C73.5601 55.9899 69.2801 61.6899 69.2801 61.6899L69.2901 61.7099Z" fill="url(#_paint0_linear_3128_2)"></path><path d="M54.7502 29.57C54.7502 29.57 53.7902 31.26 54.5602 32.98L50.6302 30.42C50.6302 30.42 46.8002 28.89 48.6702 25.74L63.0202 1.63995C63.5202 2.07995 63.9702 2.59995 64.3402 3.20995L67.1602 8.13995L54.7502 29.57Z" fill="url(#_paint1_linear_3128_2)"></path><g style="mix-blend-mode:multiply" opacity="0.2"><path d="M69.2901 61.7099L67.1901 64.9999H59.0701L65.0301 54.6899C65.0301 54.6899 70.4801 45.0699 59.6601 36.2899L59.5901 36.2499C60.4701 36.4999 61.0301 36.7399 61.0301 36.7399C61.0301 36.7399 69.6501 39.7299 71.7801 48.5799C73.5601 55.9899 69.2801 61.6899 69.2801 61.6899L69.2901 61.7099Z" fill="url(#_paint2_linear_3128_2)"></path><path d="M54.7502 29.57C54.7502 29.57 53.7902 31.26 54.5602 32.98L50.6302 30.42C50.6302 30.42 46.8002 28.89 48.6702 25.74L63.0202 1.63995C63.5202 2.07995 63.9702 2.59995 64.3402 3.20995L67.1602 8.13995L54.7502 29.57Z" fill="url(#_paint3_linear_3128_2)"></path></g><path d="M88.04 65H67.18L69.28 61.71C69.28 61.71 73.42 56.03 71.78 48.6C71.08 45.43 69.03 42.73 66.68 40.57C65.76 39.72 64.77 38.95 63.74 38.23C62.66 37.48 60.84 36.85 59.65 36.3C58.46 35.75 57.93 35.18 56.81 34.45C56.06 33.96 55.3 33.47 54.55 32.98C53.77 31.26 54.74 29.57 54.74 29.57L67.15 8.13995L93.77 54.71C96.54 59.21 93.3 65 88.02 65H88.04Z" fill="url(#_paint4_linear_3128_2)"></path><path d="M65.0302 54.69L59.0702 65H43.3202L52.0802 49.92C53.1902 47.96 49.8702 46.26 49.8702 46.26L41.5202 41.23C30.0202 31.95 35.4702 21.38 35.4702 21.38L44.0902 6.22998L47.7002 12.11L52.7502 3.36998C54.9502 -0.44002 59.9602 -1.04002 63.0202 1.63998L48.6702 25.73C46.8002 28.88 50.6302 30.41 50.6302 30.41L59.6602 36.29C70.4802 45.06 65.0302 54.69 65.0302 54.69Z" fill="white"></path></g><defs><linearGradient id="_paint0_linear_3128_2" x1="59.0601" y1="50.6299" x2="72.2201" y2="50.6299" gradientUnits="userSpaceOnUse"><stop stop-color="#EF4523"></stop><stop offset="0.2" stop-color="#EC4B23"></stop><stop offset="0.48" stop-color="#E35D25"></stop><stop offset="0.71" stop-color="#DA7327"></stop></linearGradient><linearGradient id="_paint1_linear_3128_2" x1="48.1602" y1="17.31" x2="67.1602" y2="17.31" gradientUnits="userSpaceOnUse"><stop stop-color="#D13827"></stop><stop offset="0.28" stop-color="#D13E27"></stop><stop offset="0.66" stop-color="#D34F27"></stop><stop offset="1" stop-color="#D56427"></stop></linearGradient><linearGradient id="_paint2_linear_3128_2" x1="59.0601" y1="50.6299" x2="72.2201" y2="50.6299" gradientUnits="userSpaceOnUse"><stop stop-color="#EF4523"></stop><stop offset="0.2" stop-color="#EC4B23"></stop><stop offset="0.48" stop-color="#E35D25"></stop><stop offset="0.71" stop-color="#DA7327"></stop></linearGradient><linearGradient id="_paint3_linear_3128_2" x1="48.1602" y1="17.31" x2="67.1602" y2="17.31" gradientUnits="userSpaceOnUse"><stop stop-color="#D13827"></stop><stop offset="0.28" stop-color="#D13E27"></stop><stop offset="0.66" stop-color="#D34F27"></stop><stop offset="1" stop-color="#D56427"></stop></linearGradient><linearGradient id="_paint4_linear_3128_2" x1="54.26" y1="36.57" x2="94.8" y2="36.57" gradientUnits="userSpaceOnUse"><stop stop-color="#EF4523"></stop><stop offset="0.08" stop-color="#EF4A22"></stop><stop offset="0.19" stop-color="#F05A21"></stop><stop offset="0.31" stop-color="#F2751F"></stop><stop offset="0.44" stop-color="#F5991D"></stop><stop offset="0.55" stop-color="#F9BF1B"></stop><stop offset="1" stop-color="#FCC31A"></stop></linearGradient><clipPath id="clip0_3128_2"><rect width="372.76" height="65" fill="white"></rect></clipPath></defs></svg>